{"asset":{"generator":"glTF-Transform v3.5.1","version":"2.0","extras":{"author":"CHAMELEONHUM (https://sketchfab.com/CHAMELEONHUM)","license":"CC-BY-4.0 (http://creativecommons.org/licenses/by/4.0/)","source":"https://sketchfab.com/3d-models/adidas-originals-prophere-cq2127-e582295a143041268a737b4ea54556cc","title":"adidas Originals Prophere CQ2127"}},"accessors":[{"type":"VEC3","componentType":5126,"count":65532,"max":[0.3164220452308655,0.16489481925964355,0.214671790599823],"min":[-0.4103909730911255,-0.16493108868598938,-0.20513907074928284],"bufferView":0,"byteOffset":0},{"type":"VEC3","componentType":5126,"count":65532,"bufferView":0,"byteOffset":12},{"type":"VEC2","componentType":5126,"count":65532,"bufferView":0,"byteOffset":24},{"type":"VEC3","componentType":5126,"count":39195,"max":[0.4103910028934479,0.164931058883667,0.21466219425201416],"min":[-0.24033123254776,-0.1646943837404251,-0.20614150166511536],"bufferView":1,"byteOffset":0},{"type":"VEC3","componentType":5126,"count":39195,"bufferView":1,"byteOffset":12},{"type":"VEC2","componentType":5126,"count":39195,"bufferView":1,"byteOffset":24},{"type":"VEC3","componentType":5126,"count":3451,"max":[0.40865984559059143,0.15003928542137146,-0.127867192029953],"min":[-0.41010451316833496,-0.15628774464130402,-0.214671790599823],"bufferView":2,"byteOffset":0},{"type":"VEC3","componentType":5126,"count":3451,"bufferView":2,"byteOffset":12},{"type":"VEC2","componentType":5126,"count":3451,"bufferView":2,"byteOffset":24},{"type":"SCALAR","componentType":5125,"count":354318,"bufferView":3,"byteOffset":0},{"type":"SCALAR","componentType":5125,"count":179523,"bufferView":3,"byteOffset":1417272},{"type":"SCALAR","componentType":5125,"count":18996,"bufferView":3,"byteOffset":2135364}],"bufferViews":[{"buffer":0,"byteOffset":0,"byteLength":2097024,"byteStride":32,"target":34962},{"buffer":0,"byteOffset":2097024,"byteLength":1254240,"byteStride":32,"target":34962},{"buffer":0,"byteOffset":3351264,"byteLength":110432,"byteStride":32,"target":34962},{"buffer":0,"byteOffset":3461696,"byteLength":2211348,"target":34963}],"samplers":[{"magFilter":9729,"minFilter":9987,"wrapS":10497,"wrapT":10497}],"textures":[{"source":0,"sampler":0},{"source":1,"sampler":0}],"images":[{"mimeType":"image/jpeg","uri":"baseColor_1.jpg"},{"mimeType":"image/jpeg","uri":"baseColor_2.jpg"}],"buffers":[{"uri":"adidas_originals_prophere_cq2127.bin","byteLength":5673044}],"materials":[{"name":"Material_62","doubleSided":true,"pbrMetallicRoughness":{"roughnessFactor":0,"metallicFactor":0,"baseColorTexture":{"index":0}}},{"name":"Material_74","doubleSided":true,"pbrMetallicRoughness":{"roughnessFactor":0.6,"metallicFactor":0,"baseColorTexture":{"index":1}}}],"meshes":[{"name":"ADIDAS R_Material #62_0","primitives":[{"attributes":{"NORMAL":1,"POSITION":0,"TEXCOORD_0":2},"mode":4,"material":0,"indices":9}]},{"name":"ADIDAS R_Material #62_0","primitives":[{"attributes":{"NORMAL":4,"POSITION":3,"TEXCOORD_0":5},"mode":4,"material":0,"indices":10}]},{"name":"ADIDAS R_Material #74_0","primitives":[{"attributes":{"NORMAL":7,"POSITION":6,"TEXCOORD_0":8},"mode":4,"material":1,"indices":11}]}],"nodes":[{"name":"Sketchfab_model","rotation":[-0.7071067811865475,0,0,0.7071067811865476],"scale":[9.943023681640625,9.943023681640625,9.943023681640625],"children":[1]},{"name":"adidas Originals Prophere CQ2127.fbx","rotation":[0.7071067811865475,0,0,0.7071067811865476],"scale":[0.029999999329447746,0.029999999329447746,0.029999999329447746],"children":[2]},{"name":"RootNode","children":[3]},{"name":"ADIDAS R","rotation":[-0.7071067811865447,-6.181723814526052e-8,-6.181723814526052e-8,0.7071067811865449],"children":[4,5,6]},{"name":"ADIDAS R_Material #62_0","mesh":0},{"name":"ADIDAS R_Material #62_0","mesh":1},{"name":"ADIDAS R_Material #74_0","mesh":2}],"scenes":[{"name":"Sketchfab_Scene","nodes":[0]}],"scene":0}